<?xml version="1.0" encoding="UTF-8" standalone="no"?>
<!-- Created with Inkscape (http://www.inkscape.org/) -->

<svg
   version="1.1"
   id="svg1"
   width="231"
   height="58"
   viewBox="0 0 231 58"
   sodipodi:docname="logo-horizontal.svg"
   xml:space="preserve"
   inkscape:version="1.3.2 (091e20e, 2023-11-25, custom)"
   xmlns:inkscape="http://www.inkscape.org/namespaces/inkscape"
   xmlns:sodipodi="http://sodipodi.sourceforge.net/DTD/sodipodi-0.dtd"
   xmlns="http://www.w3.org/2000/svg"
   xmlns:svg="http://www.w3.org/2000/svg"><defs
     id="defs1" /><sodipodi:namedview
     id="namedview1"
     pagecolor="#ffffff"
     bordercolor="#000000"
     borderopacity="0.25"
     inkscape:showpageshadow="2"
     inkscape:pageopacity="0.0"
     inkscape:pagecheckerboard="0"
     inkscape:deskcolor="#d1d1d1"
     inkscape:zoom="4.2946788"
     inkscape:cx="92.67282"
     inkscape:cy="-1.9791934"
     inkscape:window-width="1920"
     inkscape:window-height="1009"
     inkscape:window-x="-8"
     inkscape:window-y="-8"
     inkscape:window-maximized="1"
     inkscape:current-layer="g2" /><g
     inkscape:groupmode="layer"
     inkscape:label="Image"
     id="g1"><g
       id="g2"
       transform="matrix(0.14968687,0,0,0.14968687,-20.787906,-51.735471)"><path
         class="st0"
         d="m 503.4,466.8 c 20.4,-21 44.6,-26.4 68.8,-15.6 35.2,15.7 44.7,60 19,88.7 -3.6,4.1 -7.8,7.7 -12.1,11.9 16.5,13.9 27.8,30.3 26.5,52.6 -0.9,14.9 -6.9,27.5 -17.5,38.1 -19.3,19.2 -60.3,26.2 -89.6,-10 -3.1,3.4 -5.8,6.9 -9.1,9.9 -16.6,15.3 -36.1,20 -57.4,13.2 -20.9,-6.6 -34.5,-21.2 -38.7,-43.1 -3.7,-19 1.1,-36 14.7,-50.2 3.3,-3.5 6.9,-6.7 10.6,-10.3 -3.5,-3.6 -6.8,-6.8 -10,-10.1 -19.1,-19.8 -21.7,-48.9 -6.3,-71 16,-23 45.1,-31.5 70.2,-19.8 6.1,2.8 11.5,7.3 16.8,11.5 3.2,2.5 5.8,6 10,10.5 1.6,-2.4 2.7,-4.2 4.1,-6.3 M 450.1,520 c 9.5,-9.8 19,-19.5 29.1,-30 -3.2,-3 -6.6,-6.4 -10.3,-9.5 -11.8,-10.2 -28.5,-9.6 -40,1.2 -11.2,10.6 -12.3,26.2 -2.5,38.8 1.9,2.5 4.2,4.7 6.4,7 18.5,18.7 37.1,37.4 55.6,56.1 1.3,1.3 2.5,2.6 3,3.2 -6.5,6.7 -12.6,13.1 -19.3,20.1 -11.5,-11.5 -23,-23.2 -34.6,-34.9 -3.9,3.9 -8.2,7.3 -11.4,11.4 -7.4,9.5 -8.8,20.1 -3.5,30.9 5.2,10.7 14,16.6 26.2,17 10.2,0.4 17.7,-4.6 24.5,-11.5 16,-16 32.1,-32 48.1,-48 4.2,-4.2 8.1,-8.8 11.5,-12.5 7.2,7.1 13.6,13.3 20.3,19.9 -11.2,11.4 -22.7,23 -34.3,34.8 3.7,3.6 7.5,7.6 11.7,11.1 7.3,6 15.9,7.6 24.9,5.3 21.1,-5.2 30.9,-32.5 13.5,-50 -14.8,-14.9 -29.5,-29.9 -44.2,-44.9 -6.3,-6.4 -12.5,-12.8 -18.4,-18.8 6.6,-6.7 12.8,-12.9 19.1,-19.3 5.7,5.6 11.5,11.3 17.2,17.1 5.7,5.7 11.3,11.6 17,17.4 4.5,-4.4 8.8,-7.9 12.2,-12.2 5.9,-7.5 7.8,-16 4.9,-25.4 -6.6,-21.3 -32.7,-28.2 -49.3,-12.7 -11.3,10.6 -22.2,21.7 -33.1,32.7 -9.9,10 -19.7,20.3 -29,30 -7.2,-7.2 -13.5,-13.5 -20.7,-20.8 1.6,-0.7 3.3,-1.9 5.4,-3.5 z"
         id="path1"
         style="fill:#ffffff" /><rect
         x="875.20001"
         y="448.79999"
         class="st1"
         width="568.70001"
         height="53.200001"
         id="rect1" /><text
         transform="translate(875.191,479.6491)"
         class="st2 st3 st4"
         id="text1"><tspan
           style="fill:#ffffff;fill-opacity:1"
           id="tspan26">Studio Technologies Ltd.</tspan></text><g
         id="g25"
         style="fill:#ffffff">
	<path
   class="st5"
   d="m 661.5,601.5 c 10.7,5.8 21.7,7.2 33.2,5.6 2.4,-0.3 4.9,-1.2 7.1,-2.2 4.6,-2.1 7.4,-5.7 7.5,-10.8 0.1,-5 -2.5,-8.8 -7,-10.6 -5.2,-2.1 -10.7,-3.6 -16.1,-5.2 -5.1,-1.5 -10.4,-2.5 -15.3,-4.4 -17.9,-6.8 -23,-17.4 -19.8,-37.2 2.2,-13.6 12.1,-20.8 24.4,-24.4 17,-4.9 33.6,-2.8 49.5,4.8 1.4,0.6 3,2.5 3,3.8 0.3,6.4 0.1,12.9 0.1,20.1 -2,-1.2 -3.6,-2 -5,-3 -10.8,-7.9 -23,-9.1 -35.7,-7.7 -1.6,0.2 -3.3,0.7 -4.8,1.3 -4.8,2 -8.1,5.2 -8.2,10.8 -0.1,5.6 3.1,9.2 7.9,10.9 6.4,2.3 13.1,3.8 19.6,5.8 4.9,1.5 9.8,3.1 14.5,5.2 23.7,10.8 21.4,39.8 5.9,52.2 -7.8,6.2 -16.8,9.6 -26.5,10.4 -13.4,1.2 -26.5,-0.6 -39.1,-5.9 -3.4,-1.4 -5.3,-3.1 -5,-7.3 0.5,-5.6 0.1,-11.3 0.1,-17.8 3.6,1.9 6.5,3.6 9.7,5.6 z"
   id="path2"
   style="fill:#ffffff" />
	<path
   class="st5"
   d="m 1180.7,625.1 c -6,0.1 -12.1,0.1 -18.6,-0.2 -1.1,-0.9 -1.7,-1.3 -2.3,-1.8 -0.1,-2.4 -0.2,-4.8 -0.4,-7.5 -14.9,13.7 -30.5,15.3 -43.9,4.7 -6.9,-5.5 -11.2,-12.7 -13.3,-21.2 -3.6,-15 -2.3,-29.4 6.3,-42.6 8.1,-12.4 23.2,-18.1 37.1,-13.3 5,1.7 9.3,5.7 14,8.7 0,-10.1 0,-21 0.4,-32.5 0.2,-1.8 0,-3.1 -0.2,-4.4 0.5,-2.3 -2.3,-5.6 2.1,-6.5 0.1,0.7 -0.1,1 -0.2,1.4 0.1,0.1 0.3,0.2 0.4,0.2 6.5,0 13,0 19.6,0 0.1,4.7 0.2,9.4 -0.2,14.7 -0.2,1.9 0,3.1 0.2,4.3 0.1,3.7 0.2,7.4 -0.2,11.7 -0.2,2.2 0,3.8 0.2,5.3 0.1,0.7 0.2,1.5 -0.2,2.8 -0.2,4.1 0,7.6 0.2,11.2 0.1,4.3 0.2,8.7 -0.1,13.6 -0.2,1.2 0,1.8 0.1,2.4 0.1,0.7 0.2,1.5 -0.2,2.8 -0.2,2.1 0,3.7 0.2,5.2 0.1,1.4 0.2,2.8 -0.2,4.8 -0.2,4.5 0,8.4 0.2,12.2 0.1,3.3 0.2,6.7 -0.2,10.7 -0.2,2.5 0,4.4 0.2,6.3 0.1,0.4 0.1,0.9 -0.2,1.9 -0.5,2.1 -0.7,3.6 -0.8,5.1 m -52.3,-24.4 c 5.1,7.9 11.4,10.6 19.3,8.4 8,-2.2 11.7,-7.6 11.7,-17.3 0,-5.8 0,-11.6 0,-17.4 -0.1,-6.8 -3.7,-11.2 -9.8,-13.6 -9.7,-3.8 -19.2,0.6 -22.8,10.7 -3.4,9.7 -3.2,19.3 1.6,29.2 z"
   id="path3"
   style="fill:#ffffff" />
	<path
   class="st5"
   d="m 772.4,574.3 c 1.2,-1 2.6,-1.8 3.6,-3 6.9,-8.2 13.5,-16.5 20.5,-24.5 1.4,-1.6 4.1,-2.7 6.2,-2.8 7.3,-0.3 14.6,-0.1 23.3,-0.1 -10.3,11.8 -20,22.9 -29.8,34.1 10.7,15.6 21.3,31.1 32.6,47.5 -9.4,0 -17.8,0.1 -26.1,-0.1 -1.2,0 -2.5,-1.9 -3.4,-3.2 -7.8,-11.4 -15.5,-22.9 -23.2,-34.4 -0.9,-1.4 -2,-2.6 -3.7,-3.8 -1,1.5 -1.6,2.9 -1.6,4.4 -0.1,12.3 0,24.7 0,37 -6.4,0.1 -12.7,0.1 -19.5,-0.4 -0.5,-34.7 -0.5,-68.8 -0.5,-103 0,-11.6 0,-11.6 11.8,-11.7 2.4,0 4.8,-1 7.2,-1.6 1,0.7 1.9,1.3 2.4,2.4 -0.8,1.1 -1.3,1.6 -1.3,2.2 -0.1,19.9 -0.1,39.8 0,59.7 -0.2,0.3 0.9,0.8 1.5,1.3 z"
   id="path4"
   style="fill:#ffffff" />
	<path
   class="st5"
   d="m 1050.7,542 c 22,0.2 38.1,12.8 42.1,32.4 4.4,21.8 -4.9,41.5 -23.6,49.3 -22.5,9.5 -52.9,1.2 -59,-28.8 -6.5,-32.5 15.8,-52.6 40.5,-52.9 m 10.3,21.2 c -9.4,-5.4 -19.5,-3.3 -24.1,5.6 -5.4,10.5 -5.6,21.6 0,32.1 5.7,10.9 21.5,11.4 28.3,1.2 6.9,-10.4 6,-30.8 -4.2,-38.9 z"
   id="path5"
   style="fill:#ffffff" />
	<path
   class="st5"
   d="m 922.6,606.1 c 0,-21 0,-41.4 0,-62.1 7.5,0 14.6,0 22.1,0 0,3.4 0,6.6 0,11.4 1.9,-2.2 2.9,-3.4 4,-4.5 8.9,-8.9 19.6,-11 31.3,-7.2 11.2,3.7 16.3,12.7 16.7,23.7 0.5,19.1 0.2,38.3 0.2,57.7 -7,0 -14.4,0 -22.4,0 0,-2.7 0,-5.5 0,-8.2 -0.1,-14 0,-28 -0.2,-42 -0.1,-6 -2.3,-11.2 -8.8,-13.1 -6.7,-1.9 -12.7,-0.2 -17.1,5.2 -1.6,2 -2.7,5 -2.7,7.6 -0.3,15.2 -0.2,30.3 -0.2,45.5 0,1.6 0,3.2 0,5.1 -7.8,0 -15.1,0 -22.8,0 -0.1,-6.3 -0.1,-12.4 -0.1,-19.1 z"
   id="path6"
   style="fill:#ffffff" />
	<path
   class="st5"
   d="m 869.6,656.6 c -7.9,0.4 -15.5,0.4 -23.7,0.4 3.4,-8 6.3,-16.1 10.3,-23.6 4.3,-7.9 3.8,-14.7 0.2,-22.8 -9.7,-21.8 -18.4,-44.1 -27.8,-66.9 8.5,0 16.6,-0.1 24.6,0.2 0.9,0 2.2,2.1 2.7,3.4 5.5,16.2 10.9,32.4 16.7,49.6 6.3,-18.1 12.3,-35.5 18.4,-53.1 7.9,0 15.7,0 24.5,0 -15.4,37.9 -30.5,75.2 -45.9,112.8 z"
   id="path7"
   style="fill:#ffffff" />
	<path
   class="st5"
   d="m 1269.6,578.1 c 0.1,0.5 0.1,0.9 -0.2,2 -0.7,3 -1,5.4 -1.3,8 -2.2,0 -4,0 -5.8,0 -12.9,0 -25.8,-0.1 -38.7,0.1 -1.6,0 -3.3,1.2 -4.9,1.9 0.9,14.6 11.8,22.6 27.3,19.6 7.2,-1.4 14.2,-4.1 21.8,-6.4 0,4.5 0.2,9.1 -0.1,13.7 -0.1,1.1 -1.4,2.6 -2.6,3.2 -15.9,8.6 -32.3,10 -48.8,2.3 -14.5,-6.8 -23,-23.1 -21.1,-40.3 0.7,-6.3 2.1,-12.9 4.6,-18.7 8.5,-18.8 30.8,-27.1 49.7,-18.7 13.5,6 18.5,17.8 19.9,32.1 0,0.7 0.1,1 0.2,1.2 m -45.2,-0.9 c 8.1,0 16.1,0 24.2,0 -0.3,-12 -5.9,-19.1 -14.5,-19.1 -8.5,0 -14.7,7.6 -15.1,19.1 1.5,0 2.9,0 5.4,0 z"
   id="path8"
   style="fill:#ffffff" />
	<path
   class="st6"
   d="m 769.2,508.4 c -1.9,0.6 -4.3,1.6 -6.7,1.7 -11.8,0.2 -11.8,0.1 -11.8,11.7 0,34.1 0,68.3 0,102.9 -0.2,0.5 -0.3,0.6 -0.8,0.2 -0.5,-0.8 -0.7,-1.3 -0.9,-1.7 0,-38.1 0,-76.1 0,-114.8 6.6,-0.1 13.2,-0.1 20.2,0 z"
   id="path9"
   style="fill:#ffffff" />
	<path
   class="st6"
   d="m 772.4,573.8 c -0.6,0 -1.7,-0.5 -1.7,-0.9 -0.1,-19.9 -0.1,-39.8 0,-59.7 0,-0.6 0.5,-1.1 1.2,-1.8 0.5,20.5 0.5,41.2 0.5,62.4 z"
   id="path10"
   style="fill:#ffffff" />
	<path
   class="st6"
   d="m 1219.1,590 c 1.2,-0.6 2.8,-1.8 4.4,-1.8 12.9,-0.2 25.8,-0.1 38.7,-0.1 1.8,0 3.6,0 5.8,0 0.3,-2.7 0.6,-5 1.2,-7.7 0.3,2.8 0.3,5.9 0.3,9.5 -16.7,0.1 -33.3,0.1 -50.4,0.1 z"
   id="path11"
   style="fill:#ffffff" />
	<path
   class="st6"
   d="m 771.1,625.2 c -0.4,-12.3 -0.5,-24.7 -0.4,-37 0,-1.4 0.6,-2.9 1.3,-4.2 0.4,13.3 0.4,26.5 0.5,39.7 -0.1,0.4 -0.6,0.9 -1.4,1.5 z"
   id="path12"
   style="fill:#ffffff" />
	<path
   class="st6"
   d="m 1181.8,509.7 c -6.5,0.5 -13.1,0.5 -19.6,0.5 -0.1,0 -0.3,-0.1 -0.4,-0.2 0.1,-0.4 0.3,-0.7 0.6,-1.3 6.6,0.1 13,0.3 19.4,1 z"
   id="path13"
   style="fill:#ffffff" />
	<path
   class="st6"
   d="m 1181.9,600.7 c -0.3,-3.4 -0.5,-7.2 -0.4,-11.3 0.3,3.4 0.4,7.1 0.4,11.3 z"
   id="path14"
   style="fill:#ffffff" />
	<path
   class="st6"
   d="m 1181.9,559.7 c -0.3,-3.1 -0.5,-6.6 -0.4,-10.3 0.4,3.1 0.4,6.5 0.4,10.3 z"
   id="path15"
   style="fill:#ffffff" />
	<path
   class="st6"
   d="m 1159.8,515.6 c 0.3,0.9 0.5,2.2 0.4,3.5 -0.4,-1 -0.4,-2.1 -0.4,-3.5 z"
   id="path16"
   style="fill:#ffffff" />
	<path
   class="st6"
   d="m 1181.9,617.8 c -0.3,-1.4 -0.5,-3.3 -0.4,-5.4 0.3,1.4 0.4,3.2 0.4,5.4 z"
   id="path17"
   style="fill:#ffffff" />
	<path
   class="st6"
   d="m 1181.9,583.8 c -0.3,-1.1 -0.5,-2.7 -0.4,-4.4 0.3,1.1 0.4,2.5 0.4,4.4 z"
   id="path18"
   style="fill:#ffffff" />
	<path
   class="st6"
   d="m 1181.9,545.8 c -0.3,-1.1 -0.5,-2.7 -0.4,-4.4 0.4,1.1 0.4,2.5 0.4,4.4 z"
   id="path19"
   style="fill:#ffffff" />
	<path
   class="st6"
   d="m 1181.1,625.1 c -0.2,-1.5 -0.1,-3 0.4,-4.7 0.2,1.3 0.1,3 -0.4,4.7 z"
   id="path20"
   style="fill:#ffffff" />
	<path
   class="st6"
   d="m 1181.9,528.8 c -0.3,-0.8 -0.5,-2 -0.4,-3.5 0.3,0.9 0.4,2 0.4,3.5 z"
   id="path21"
   style="fill:#ffffff" />
	<path
   class="st6"
   d="m 1159.8,623.5 c 0.7,0.1 1.3,0.5 1.9,1.3 -0.7,-0.1 -1.3,-0.5 -1.9,-1.3 z"
   id="path22"
   style="fill:#ffffff" />
	<path
   class="st6"
   d="m 1181.9,575.8 c -0.3,-0.3 -0.4,-0.8 -0.3,-1.6 0.3,0.4 0.3,0.8 0.3,1.6 z"
   id="path23"
   style="fill:#ffffff" />
	<path
   class="st7"
   d="m 748.9,623.5 c 0.3,0.2 0.6,0.6 0.8,1.3 -0.3,-0.2 -0.6,-0.6 -0.8,-1.3 z"
   id="path24"
   style="fill:#ffffff" />
	<path
   class="st6"
   d="m 1269.6,577.9 c -0.2,0 -0.3,-0.3 -0.2,-0.6 0.2,-0.1 0.3,0.3 0.2,0.6 z"
   id="path25"
   style="fill:#ffffff" />
</g><circle
         class="st5"
         cx="498.79999"
         cy="552.29999"
         r="25.299999"
         id="circle25"
         style="fill:#ffffff" /></g></g><style
     type="text/css"
     id="style1">
	.st0{fill:#426FF1;}
	.st1{fill:none;}
	.st2{fill:#3B60A5;}
	.st3{font-family:'MicrosoftYaHeiLight';}
	.st4{font-size:36px;}
	.st5{fill:#294BA2;}
	.st6{fill:#0F2895;}
	.st7{fill:#1F379C;}
</style></svg>
